<svg xmlns="http://www.w3.org/2000/svg" viewBox="0 0 64 64" role="img" aria-label="VetVik">
  <defs>
    <linearGradient id="bg" x1="0" y1="0" x2="1" y2="1">
      <stop offset="0%" stop-color="#111827" />
      <stop offset="100%" stop-color="#0f3a42" />
    </linearGradient>
    <linearGradient id="paw" x1="0" y1="0" x2="1" y2="1">
      <stop offset="0%" stop-color="#22d3ee" />
      <stop offset="100%" stop-color="#14b8a6" />
    </linearGradient>
  </defs>
  <rect x="2" y="2" width="60" height="60" rx="16" fill="url(#bg)" />
  <circle cx="22" cy="23" r="6" fill="url(#paw)" />
  <circle cx="32" cy="18" r="6" fill="url(#paw)" />
  <circle cx="42" cy="23" r="6" fill="url(#paw)" />
  <path
    d="M32 30c-8.8 0-15 5.6-15 11.4C17 46.6 21.8 50 26.8 50c2.1 0 3.8-.8 5.2-2.1 1.4 1.3 3.1 2.1 5.2 2.1 5 0 9.8-3.4 9.8-8.6C47 35.6 40.8 30 32 30z"
    fill="url(#paw)"
  />
</svg>
